<svg xmlns="http://www.w3.org/2000/svg" xmlns:xlink="http://www.w3.org/1999/xlink" width="130" zoomAndPan="magnify" viewBox="0 0 97.5 30.000001" height="40" preserveAspectRatio="xMidYMid meet" version="1.0"><defs><g/><clipPath id="2bcfa9a0f5"><path d="M 2 0 L 95.683594 0 L 95.683594 29.03125 L 2 29.03125 Z M 2 0 " clip-rule="nonzero"/></clipPath><clipPath id="4c27b3c83b"><path d="M 22 0 L 93.683594 0 L 93.683594 29.03125 L 22 29.03125 Z M 22 0 " clip-rule="nonzero"/></clipPath><clipPath id="e6b126be88"><rect x="0" width="72" y="0" height="30"/></clipPath><clipPath id="751d8b2d69"><path d="M 0.257812 3 L 19 3 L 19 26 L 0.257812 26 Z M 0.257812 3 " clip-rule="nonzero"/></clipPath><clipPath id="e0a6e51dea"><rect x="0" width="94" y="0" height="30"/></clipPath></defs><g clip-path="url(#2bcfa9a0f5)"><g transform="matrix(1, 0, 0, 1, 2, 0.000000000000005692)"><g clip-path="url(#e0a6e51dea)"><g clip-path="url(#4c27b3c83b)"><g transform="matrix(1, 0, 0, 1, 22, 0.000000000000005692)"><g clip-path="url(#e6b126be88)"><g fill="#ffffff" fill-opacity="1"><g transform="translate(0.811963, 23.340392)"><g><path d="M 12.5 -4.84375 C 12.5 -3.8125 12.242188 -2.910156 11.734375 -2.140625 C 11.234375 -1.378906 10.503906 -0.789062 9.546875 -0.375 C 8.585938 0.03125 7.425781 0.234375 6.0625 0.234375 C 5.457031 0.234375 4.863281 0.191406 4.28125 0.109375 C 3.707031 0.0351562 3.15625 -0.078125 2.625 -0.234375 C 2.101562 -0.390625 1.601562 -0.582031 1.125 -0.8125 L 1.125 -4.25 C 1.945312 -3.882812 2.800781 -3.550781 3.6875 -3.25 C 4.582031 -2.957031 5.46875 -2.8125 6.34375 -2.8125 C 6.945312 -2.8125 7.429688 -2.890625 7.796875 -3.046875 C 8.171875 -3.210938 8.441406 -3.429688 8.609375 -3.703125 C 8.773438 -3.984375 8.859375 -4.304688 8.859375 -4.671875 C 8.859375 -5.109375 8.710938 -5.476562 8.421875 -5.78125 C 8.128906 -6.09375 7.722656 -6.382812 7.203125 -6.65625 C 6.691406 -6.925781 6.117188 -7.21875 5.484375 -7.53125 C 5.078125 -7.71875 4.632812 -7.945312 4.15625 -8.21875 C 3.675781 -8.5 3.21875 -8.835938 2.78125 -9.234375 C 2.351562 -9.628906 2.003906 -10.109375 1.734375 -10.671875 C 1.460938 -11.242188 1.328125 -11.929688 1.328125 -12.734375 C 1.328125 -13.773438 1.5625 -14.664062 2.03125 -15.40625 C 2.507812 -16.144531 3.191406 -16.710938 4.078125 -17.109375 C 4.972656 -17.503906 6.023438 -17.703125 7.234375 -17.703125 C 8.140625 -17.703125 9.003906 -17.59375 9.828125 -17.375 C 10.648438 -17.164062 11.507812 -16.863281 12.40625 -16.46875 L 11.21875 -13.59375 C 10.414062 -13.914062 9.695312 -14.164062 9.0625 -14.34375 C 8.425781 -14.519531 7.773438 -14.609375 7.109375 -14.609375 C 6.648438 -14.609375 6.253906 -14.535156 5.921875 -14.390625 C 5.597656 -14.242188 5.351562 -14.035156 5.1875 -13.765625 C 5.019531 -13.503906 4.9375 -13.195312 4.9375 -12.84375 C 4.9375 -12.4375 5.054688 -12.09375 5.296875 -11.8125 C 5.546875 -11.53125 5.914062 -11.253906 6.40625 -10.984375 C 6.894531 -10.722656 7.503906 -10.421875 8.234375 -10.078125 C 9.117188 -9.648438 9.878906 -9.207031 10.515625 -8.75 C 11.148438 -8.289062 11.640625 -7.753906 11.984375 -7.140625 C 12.328125 -6.523438 12.5 -5.757812 12.5 -4.84375 Z M 12.5 -4.84375 "/></g></g></g><g fill="#ffffff" fill-opacity="1"><g transform="translate(14.274287, 23.340392)"><g><path d="M 5.546875 -18.5625 L 5.546875 -14.78125 C 5.546875 -14.125 5.523438 -13.492188 5.484375 -12.890625 C 5.441406 -12.296875 5.40625 -11.878906 5.375 -11.640625 L 5.578125 -11.640625 C 5.859375 -12.097656 6.195312 -12.46875 6.59375 -12.75 C 6.988281 -13.039062 7.421875 -13.253906 7.890625 -13.390625 C 8.367188 -13.523438 8.882812 -13.59375 9.4375 -13.59375 C 10.394531 -13.59375 11.234375 -13.421875 11.953125 -13.078125 C 12.671875 -12.742188 13.226562 -12.21875 13.625 -11.5 C 14.019531 -10.78125 14.21875 -9.847656 14.21875 -8.703125 L 14.21875 0 L 10.578125 0 L 10.578125 -7.796875 C 10.578125 -8.742188 10.398438 -9.457031 10.046875 -9.9375 C 9.703125 -10.425781 9.164062 -10.671875 8.4375 -10.671875 C 7.707031 -10.671875 7.128906 -10.503906 6.703125 -10.171875 C 6.285156 -9.835938 5.988281 -9.34375 5.8125 -8.6875 C 5.632812 -8.03125 5.546875 -7.226562 5.546875 -6.28125 L 5.546875 0 L 1.90625 0 L 1.90625 -18.5625 Z M 5.546875 -18.5625 "/></g></g></g><g fill="#ffffff" fill-opacity="1"><g transform="translate(30.338372, 23.340392)"><g><path d="M 7.375 -13.609375 C 9.164062 -13.609375 10.535156 -13.21875 11.484375 -12.4375 C 12.441406 -11.664062 12.921875 -10.484375 12.921875 -8.890625 L 12.921875 0 L 10.375 0 L 9.671875 -1.8125 L 9.578125 -1.8125 C 9.203125 -1.332031 8.8125 -0.941406 8.40625 -0.640625 C 8.007812 -0.335938 7.550781 -0.117188 7.03125 0.015625 C 6.519531 0.160156 5.894531 0.234375 5.15625 0.234375 C 4.363281 0.234375 3.65625 0.0820312 3.03125 -0.21875 C 2.40625 -0.519531 1.914062 -0.984375 1.5625 -1.609375 C 1.207031 -2.234375 1.03125 -3.023438 1.03125 -3.984375 C 1.03125 -5.398438 1.523438 -6.441406 2.515625 -7.109375 C 3.515625 -7.785156 5.007812 -8.160156 7 -8.234375 L 9.3125 -8.3125 L 9.3125 -8.890625 C 9.3125 -9.585938 9.125 -10.097656 8.75 -10.421875 C 8.382812 -10.753906 7.878906 -10.921875 7.234375 -10.921875 C 6.585938 -10.921875 5.953125 -10.828125 5.328125 -10.640625 C 4.710938 -10.460938 4.09375 -10.234375 3.46875 -9.953125 L 2.265625 -12.40625 C 2.972656 -12.78125 3.765625 -13.070312 4.640625 -13.28125 C 5.523438 -13.5 6.4375 -13.609375 7.375 -13.609375 Z M 9.3125 -6.1875 L 7.90625 -6.140625 C 6.726562 -6.097656 5.910156 -5.882812 5.453125 -5.5 C 4.992188 -5.113281 4.765625 -4.601562 4.765625 -3.96875 C 4.765625 -3.40625 4.925781 -3.003906 5.25 -2.765625 C 5.570312 -2.535156 6 -2.421875 6.53125 -2.421875 C 7.3125 -2.421875 7.96875 -2.648438 8.5 -3.109375 C 9.039062 -3.578125 9.3125 -4.234375 9.3125 -5.078125 Z M 9.3125 -6.1875 "/></g></g></g><g fill="#ffffff" fill-opacity="1"><g transform="translate(45.101576, 23.340392)"><g><path d="M 9.359375 -13.59375 C 9.535156 -13.59375 9.742188 -13.582031 9.984375 -13.5625 C 10.234375 -13.539062 10.429688 -13.515625 10.578125 -13.484375 L 10.3125 -10.078125 C 10.1875 -10.109375 10.015625 -10.132812 9.796875 -10.15625 C 9.578125 -10.175781 9.390625 -10.1875 9.234375 -10.1875 C 8.765625 -10.1875 8.304688 -10.125 7.859375 -10 C 7.421875 -9.882812 7.023438 -9.691406 6.671875 -9.421875 C 6.328125 -9.160156 6.050781 -8.8125 5.84375 -8.375 C 5.644531 -7.945312 5.546875 -7.421875 5.546875 -6.796875 L 5.546875 0 L 1.90625 0 L 1.90625 -13.34375 L 4.671875 -13.34375 L 5.203125 -11.09375 L 5.375 -11.09375 C 5.644531 -11.550781 5.972656 -11.96875 6.359375 -12.34375 C 6.753906 -12.71875 7.203125 -13.019531 7.703125 -13.25 C 8.210938 -13.476562 8.765625 -13.59375 9.359375 -13.59375 Z M 9.359375 -13.59375 "/></g></g></g><g fill="#ffffff" fill-opacity="1"><g transform="translate(56.200833, 23.340392)"><g><path d="M 6.140625 0.234375 C 4.648438 0.234375 3.4375 -0.34375 2.5 -1.5 C 1.5625 -2.664062 1.09375 -4.378906 1.09375 -6.640625 C 1.09375 -8.929688 1.566406 -10.660156 2.515625 -11.828125 C 3.460938 -13.003906 4.703125 -13.59375 6.234375 -13.59375 C 6.867188 -13.59375 7.425781 -13.503906 7.90625 -13.328125 C 8.394531 -13.148438 8.816406 -12.914062 9.171875 -12.625 C 9.523438 -12.332031 9.828125 -12.003906 10.078125 -11.640625 L 10.1875 -11.640625 C 10.144531 -11.890625 10.085938 -12.257812 10.015625 -12.75 C 9.953125 -13.25 9.921875 -13.765625 9.921875 -14.296875 L 9.921875 -18.5625 L 13.5625 -18.5625 L 13.5625 0 L 10.78125 0 L 10.078125 -1.734375 L 9.921875 -1.734375 C 9.679688 -1.367188 9.390625 -1.035156 9.046875 -0.734375 C 8.703125 -0.429688 8.289062 -0.191406 7.8125 -0.015625 C 7.332031 0.148438 6.773438 0.234375 6.140625 0.234375 Z M 7.40625 -2.65625 C 8.40625 -2.65625 9.109375 -2.953125 9.515625 -3.546875 C 9.921875 -4.140625 10.140625 -5.035156 10.171875 -6.234375 L 10.171875 -6.625 C 10.171875 -7.914062 9.96875 -8.90625 9.5625 -9.59375 C 9.164062 -10.28125 8.425781 -10.625 7.34375 -10.625 C 6.539062 -10.625 5.910156 -10.28125 5.453125 -9.59375 C 5.003906 -8.90625 4.78125 -7.90625 4.78125 -6.59375 C 4.78125 -5.289062 5.007812 -4.304688 5.46875 -3.640625 C 5.925781 -2.984375 6.570312 -2.65625 7.40625 -2.65625 Z M 7.40625 -2.65625 "/></g></g></g></g></g></g><g clip-path="url(#751d8b2d69)"><path fill="#ffffff" d="M 12.828125 23.4375 C 17.308594 20.847656 19.660156 16.53125 18.078125 13.789062 C 17.605469 12.96875 16.832031 12.386719 15.863281 12.035156 C 17.566406 9.871094 18.148438 7.496094 17.140625 5.753906 C 15.558594 3.015625 10.644531 2.890625 6.160156 5.480469 C 1.679688 8.066406 -0.667969 12.386719 0.910156 15.128906 C 1.382812 15.949219 2.15625 16.53125 3.128906 16.882812 C 1.425781 19.046875 0.84375 21.421875 1.851562 23.160156 C 3.429688 25.902344 8.347656 26.027344 12.828125 23.4375 Z M 12.828125 23.4375 " fill-opacity="1" fill-rule="nonzero"/></g></g></g></g></svg>